<svg xmlns="http://www.w3.org/2000/svg" pointer-events="none" class="leaflet-zoom-animated" width="1102" height="638" viewBox="-92 -53 1102 638" style="transform: translate3d(-92px, -53px, 0px);"><g><path class="leaflet-interactive" stroke="#201920" stroke-opacity="1" stroke-width="2" stroke-linecap="round" stroke-linejoin="round" fill="none" d="M287 236L285 232L288 229L287 228L291 224L293 224L293 222L294 223L297 221L298 224L302 224L305 218L310 219L310 217L311 218L317 213L324 210L324 203L327 202L324 190L321 189L326 186L327 187L331 185L337 185L335 181L340 169L345 172L354 171L354 161L361 157L361 153L367 153L366 156L368 156L368 158L370 160L371 159L372 162L379 164L382 167L385 174L383 184L386 187L387 186L392 188L400 188L407 194L410 193L409 194L415 206L441 206L457 213L461 212L462 214L477 208L489 208L494 206L504 197L501 194L502 189L504 187L513 190L520 184L523 185L526 183L530 177L534 177L540 173L544 173L543 174L544 173L546 175L549 174L548 169L542 163L539 162L535 166L533 164L529 164L527 166L524 162L526 161L531 147L537 150L541 146L546 145L546 139L550 131L554 127L554 123L550 121L555 115L556 116L563 113L571 113L577 117L580 116L584 120L586 124L585 125L587 127L586 128L589 133L588 134L592 140L591 143L593 143L592 146L594 149L599 149L607 155L609 155L611 159L610 162L613 166L617 166L629 160L635 159L633 161L633 167L630 168L631 170L629 178L626 181L624 187L623 188L617 185L613 189L613 204L611 204L609 206L610 207L606 203L605 208L603 208L600 211L596 211L597 214L595 216L590 215L591 214L588 213L587 216L582 221L580 221L581 222L580 221L575 225M315 283L313 279L314 278L316 280L318 278L318 276L315 273L315 269L317 267L312 265L312 259L306 259L303 256L301 256L299 254L299 250L291 248L291 246L293 247M475 347L473 345L474 342L469 341L466 338L458 344L456 342L453 344L451 342L449 342L449 344L445 344L445 352L443 352L442 348L438 350L436 346L432 346L431 345L433 341L430 340L428 336L428 334L430 334L422 334L423 327L427 323L429 323L429 313L427 311L426 312L425 307L422 306L419 311L415 307L411 307L399 316L391 316L390 312L388 312L387 309L384 310L385 309L376 308L374 314L372 312L373 309L362 310L360 308L357 309L358 308L356 310L355 307L351 307L352 305L347 304L345 300L342 301L332 293L330 293L329 296L320 289L316 289L315 283M481 349L475 347M483 441L483 435M489 382L492 388M495 405L493 411M503 456L509 454M524 434L528 429M541 413L544 406M544 383L544 390M550 365L547 371M561 349L556 354M564 338L566 330" id="国界"/><path class="leaflet-interactive" stroke="#201920" stroke-opacity="1" stroke-width="2" stroke-linecap="butt" stroke-linejoin="round" stroke-dasharray="4,4" stroke-dashoffset="4" fill="none" d="M293 247L295 245L293 243L293 237L287 236" id="争议"/><path class="leaflet-interactive" stroke="gray" stroke-opacity="1" stroke-width="1" stroke-linecap="round" stroke-linejoin="round" stroke-dasharray="8,4,4,4" fill="none" d="M513 345L513 345M517 343L515 345L517 346L517 343" id="港澳"/><path class="leaflet-interactive" stroke="#4190da" stroke-opacity="1" stroke-width="1" stroke-linecap="round" stroke-linejoin="round" fill="none" d="M516 344L514 342L514 344L511 347L510 346L510 348L504 348L502 350L494 352L496 356L494 358L492 358L491 349L481 349M495 352L495 352M495 352L496 353L494 353L495 352M513 345L513 345M516 344L516 344M516 344L516 344M516 344L516 344M549 317L547 321L547 325L549 325L545 325L546 326L544 326L544 328L541 331L539 331L539 333L535 337L533 337L528 342L525 341L525 343L520 342L518 343L519 344L517 344L518 345L516 344M549 317L549 317M560 302L559 301L559 307L557 309L556 308L556 310L553 312L554 313L549 317M558 250L555 251L553 255L550 254L551 255L545 263L552 268L555 275L555 279L557 279L558 282L560 282L561 285L555 284L557 286M557 286L560 287L562 292L556 292L561 297L561 301M558 250L558 250M558 250L558 250M563 231L556 236L556 234L559 233L557 229L562 224L560 220L556 220L553 223L553 225L547 227L546 230L543 233L544 232L541 233L542 234L538 232L536 236L536 238L538 238L541 241L544 240L546 242L544 244L545 247L549 247L549 245L553 242L555 242L558 245L561 244L565 246L564 249L561 248L558 250M558 250L559 249L558 250M560 302L560 302M560 302L560 302M560 302L560 302M561 301L560 302M561 301L561 301M562 296L562 296M562 296L562 296M562 296L562 296M563 296L562 296M562 296L561 295L563 296M563 296L563 296M563 294L563 294M563 294L563 294M563 231L563 231M575 225L572 228L568 228L563 231M564 291L564 291M564 291L564 291M565 291L565 291M486 349L486 349M488 353L488 353M490 359L490 359M490 433L493 432L490 433M490 370L485 367L485 363L489 359L490 360L496 358L499 360L496 366L490 370M492 430L492 430M495 355L495 355M495 352L495 352M495 430L496 431L495 430M495 429L496 428L495 429M496 352L496 352M496 357L496 357M496 429L496 429M496 353L496 353M500 384L500 384M501 376L501 376M501 426L501 426M501 380L501 380M501 422L501 422M502 432L502 432M502 430L502 430M502 380L502 380M502 380L502 380M502 430L502 430M502 381L502 381M502 425L503 426L502 425M502 379L502 379M502 431L502 431M502 379L502 379M503 382L502 381L503 382M503 380L503 380M503 382L503 382M504 429L504 429M504 381L504 381M504 453L504 453M505 425L506 424L505 425M505 424L505 424M505 453L505 453M505 378L505 378M505 385L506 384L505 385M505 377L505 377M506 424L506 424M506 453L506 453M506 424L506 424M506 443L506 443M506 377L506 377M506 378L506 378M506 381L506 381M507 349L507 349M507 442L507 442M507 383L508 382L507 383M507 380L507 380M507 420L507 420M507 443L507 443M507 442L507 442M507 424L508 425L507 424M507 441L507 441M507 446L507 446M507 349L507 349M507 443L508 444L507 443M508 444L508 444M508 380L508 380M508 446L508 446M508 348L507 349L508 348M508 381L508 381M508 379L508 379M509 349L508 348L509 349M509 424L509 424M509 349L509 349M509 378L509 378M509 430L509 430M509 420L509 420M509 420L509 420M509 447L510 446L509 447M510 427L510 427M510 362L510 362M510 420L510 420M510 348L510 348M511 347L511 347M511 348L511 348M511 347L511 347M511 439L511 439M511 429L511 429M511 429L512 428L511 429M513 346L513 346M513 416L513 416M513 435L513 435M513 424L514 423L513 424M514 422L514 422M514 347L514 347M514 385L514 385M514 347L514 347M514 347L514 347M514 347L514 347M514 431L515 432L514 431M514 433L514 433M515 344L515 344M515 346L515 346M515 364L515 364M515 345L515 345M515 418L515 418M515 386L515 386M515 385L515 385M515 429L515 429M515 432L519 430L515 432M515 424L515 424M515 384L515 384M515 424L516 425L515 424M515 424L516 425L515 424M515 386L515 386M516 418L516 418M516 413L516 413M516 429L516 429M516 383L516 383M516 345L516 345M516 347L516 347M516 421L517 422L516 421M517 345L517 345M517 347L517 347M517 425L517 425M517 383L517 383M517 347L517 347M517 386L517 386M517 416L517 416M517 419L517 419M517 346L517 346M517 385L517 385M517 419L517 419M517 410L517 410M517 343L517 343M517 412L517 412M517 345L517 345M518 417L518 417M518 414L518 414M518 409L518 409M518 383L519 382L518 383M518 418L518 418M518 385L518 385M518 419L518 419M518 413L518 413M518 414L519 413L518 414M518 418L518 418M518 429L519 428L518 429M519 418L519 418M519 418L519 418M519 410L519 410M519 418L519 418M519 424L519 424M519 385L519 385M519 418L519 418M519 410L519 410M519 344L519 344M519 432L519 432M519 428L519 428M519 416L519 416M519 409L520 410L519 409M520 412L520 412M520 382L520 382M520 419L519 420L520 419M520 428L520 428M520 411L520 411M520 383L520 383M520 413L520 413M520 434L520 434M520 429L521 430L520 429M521 413L521 413M521 383L521 383M521 432L521 432M521 412L521 412M522 427L523 428L522 427M523 426L523 426M523 417L523 417M523 395L523 395M524 421L524 421M524 418L524 418M524 427L524 427M525 415L525 415M525 415L525 415M525 415L525 415M526 415L526 415M526 415L526 415M526 419L526 419M526 413L526 413M526 353L526 353M527 352L527 352M527 422L527 422M527 417L527 417M528 420L528 420M528 424L528 424M529 419L529 419M530 423L530 423M530 419L530 419M530 416L530 416M530 419L530 419M531 415L531 415M531 381L531 381M531 409L531 409M531 355L531 355M531 423L531 423M531 354L532 355L531 354M532 415L532 415M533 338L533 338M534 414L534 414M534 414L534 414M534 416L534 416M534 414L534 414M534 412L534 412M535 417L535 417M535 412L535 412M536 414L536 414M537 412L537 412M537 388L537 388M537 413L537 413M539 332L539 332M539 332L539 332M540 332L540 332M541 331L540 332L541 331M542 233L542 233M543 233L543 233M543 233L543 233M546 339L546 339M547 327L547 327M547 338L547 338M547 337L547 337M547 336L547 336M547 324L547 324M548 321L548 321M548 337L548 337M548 324L548 324M548 324L548 324M548 318L548 318M548 326L548 326M548 326L548 326M548 318L548 318M549 324L549 324M549 321L549 321M549 322L549 322M550 338L550 338M550 320L550 320M550 319L550 319M550 318L550 318M550 318L550 318M550 317L550 317M551 257L551 257M551 316L551 316M552 345L552 345M552 316L552 316M552 243L552 243M552 319L552 319M553 241L553 241M554 347L551 343L550 336L555 330L555 328L559 326L561 328L557 342L554 347M554 241L554 241M554 241L554 241M554 240L554 240M554 223L554 223M554 239L554 239M555 238L555 238M555 238L555 238M555 252L555 252M556 309L556 309M556 313L556 313M556 309L556 309M556 309L556 309M558 284L561 286L559 286L558 284M558 279L558 279M558 342L558 342M558 346L559 347L558 346M559 347L559 347M559 286L559 286M559 302L559 302M560 304L560 304M560 287L559 286L560 287M560 287L562 287L560 287M560 296L560 296M560 304L560 304M560 304L560 304M560 306L560 306M560 295L561 296L560 295M560 288L560 288M560 306L560 306M561 325L561 325M561 329L561 329M561 295L561 295M561 288L561 288M561 294L561 294M561 301L561 301M561 298L561 298M561 296L561 296M561 295L561 295M561 292L561 292M562 296L562 296M562 296L562 296M562 296L562 296M562 296L562 296M562 295L562 295M562 294L562 294M562 294L562 294M562 300L562 300M562 298L561 297L562 298M562 298L562 298M562 296L562 296M563 297L563 297M563 297L563 297M563 298L562 297L563 298M563 296L564 297L563 296M563 232L563 232M563 296L563 296M563 293L563 293M564 293L564 293M564 232L564 232M564 232L564 232M564 292L564 292M565 232L565 232M565 295L565 295M565 234L565 234M565 291L565 291M566 291L566 291M567 230L567 230M567 231L567 231M568 234L568 234M569 323L570 324L568 324L569 323M570 323L570 323M570 322L571 323L570 322M570 324L570 324M570 323L570 323M570 324L570 324M571 228L571 228M575 322L576 323L575 322" id="海洋"/><path class="leaflet-interactive" stroke="#747569" stroke-opacity="0.6" stroke-width="1" stroke-linecap="round" stroke-linejoin="round" fill="none" d="M377 255L375 253L364 252L358 254L354 258L351 257L346 260L339 259L339 257L331 261L325 259L322 262L322 264L320 266L316 266L317 267M423 279L421 279L421 281L418 282L419 283L417 283L417 285L415 283L415 285L412 285L410 281L409 282L409 280L405 278L401 280L390 277L388 275L382 275L378 271L379 270L377 270L377 255M393 233L380 237L380 239L382 239L382 243L386 246L386 248L383 249L383 251L385 251L385 255L379 253L379 255L377 255M446 272L445 273L445 271L444 272L440 268L448 268L449 267L447 263L449 259L452 258L451 259L453 255L450 248L451 247L447 243L442 242L437 237L437 239L434 238L429 233L425 235L420 232L418 234L419 237L417 237L417 239L414 240L412 238L406 238L404 235L402 236L396 232L393 233M415 206L413 208L414 212L412 212L409 215L409 213L407 213L400 221L396 222L392 232L393 233M460 245L455 242L455 238L460 234L458 230L453 233L448 232L448 234L444 236L441 233L441 231L433 227L437 224L436 220L434 219L429 222L426 222L426 219L422 216L424 214L420 205M431 301L430 291L428 288L429 287L427 285L426 280L423 279M446 272L445 275L442 274L443 277L441 279L437 279L436 276L434 278L431 275L429 275L427 269L424 268L421 271L423 273L421 277L423 279M425 308L429 307L428 304L430 304L431 301M466 311L465 308L461 310L460 305L458 305L458 307L455 308L456 311L452 313L453 320L450 319L446 321L440 309L438 311L436 309L437 308L435 304L433 304L432 307L431 306L431 301M467 277L465 279L462 278L460 276L460 272L456 270L455 271L453 267L451 267L451 269L448 270L450 272L447 275L446 272M479 242L473 238L476 233L474 231L469 235L468 243L460 245M460 245L462 245L462 247L463 246L466 249L466 257L467 256L472 261L472 257L475 256L475 254L472 251L474 249L473 248L477 247M466 311L466 313L461 312L456 315L457 318L462 319L460 323L463 326L462 330M462 330L462 332L463 331L466 334L467 333L471 335L471 337L467 339M490 322L487 323L487 325L486 324L481 327L479 327L476 324L476 326L470 330L467 328L462 330M472 306L470 304L468 306L472 309L470 311L466 311M477 247L477 249L485 253L485 259L481 261L480 260L479 263L474 262L472 266L474 266L472 270L473 271L470 272L470 276L467 277M484 281L481 282L478 279L477 280L475 278L472 279L470 277L467 277M489 306L487 308L483 304L483 302L480 303L480 301L478 301L478 303L476 303L473 306L473 304L472 306M472 306L472 304L466 300L466 298L469 297L467 295L469 293L471 295L474 294L474 296L476 295L479 292L478 291L482 289L484 281M477 247L479 242M499 231L499 229L496 232L494 230L494 232L492 232L491 235L487 238L488 241L486 241L486 243L483 244L479 242M484 281L490 285M490 285L493 286L494 289L489 293L486 292L483 297L485 297L487 299L486 300L488 300L488 302M488 302L489 306M515 302L513 298L510 300L509 297L507 299L503 296L502 297L498 295L495 298L492 297L488 302M490 322L489 314L486 315L490 311L489 306M504 330L502 330L501 327L499 329L498 328L501 323L500 320L498 320L499 319L494 322L490 322M498 274L490 274L492 276L491 277L494 278L490 280L490 285M492 350L491 350M492 350L491 349L501 341L501 337L504 334L504 330M492 358L493 358M493 358L495 358M495 265L495 249L497 245L496 240L498 238L498 234L500 232L499 231M495 265L496 269L499 272L498 274M495 265L504 262L504 260L509 261L513 259L514 253M495 357L496 357M523 287L516 284L514 280L504 280L498 274M499 275L499 275M516 221L513 224L507 224L504 227L504 229L499 231M504 330L505 327L509 329L511 325L515 325M524 254L521 255L514 253M514 253L513 250L516 243L513 236L516 233L518 233L519 230L518 227L515 226L518 224L516 221M528 297L524 297L520 299L521 300L517 300L515 302M515 325L517 321L515 321L515 313L513 313L513 311L517 307L515 302M515 325L520 326L516 330L517 331L521 331L523 329L525 331L526 328M545 216L544 217L539 214L540 211L537 206L533 208L531 212L525 212L522 215L519 210L515 216L516 221M528 265L528 267L530 267L531 270L528 271L524 269L525 272L523 272L521 276L522 279L526 279L527 282L523 287M528 297L526 293L527 290L523 287M538 239L535 242L531 242L528 246L527 245L527 247L523 251L524 254M528 265L524 265L524 263L520 261L527 255L523 257L524 254M526 328L528 322L531 319L530 316L534 314L533 311L541 307M534 337L532 335L532 331L526 328M539 300L534 297L532 299L530 295L530 297L528 297M529 265L528 265M546 262L545 261L539 267L538 264L534 266L532 262L529 263L529 265M548 288L544 288L540 282L543 279L544 280L545 277L544 276L540 278L539 274L538 275L539 272L529 265M535 225L535 221L533 221L530 218L530 220L529 219L530 220L528 220L528 222L525 223L526 224L524 228L526 230L532 229M536 236L533 237L531 235L532 229M532 229L532 229M532 229L534 229L534 226M534 226L531 227L532 229M534 337L534 338M535 225L534 226M535 338L535 339M535 225L537 227L535 227L537 230L538 229L538 232M539 300L543 298L543 294L545 294L546 291L547 292L548 288M539 300L538 301L541 304L541 307M552 315L552 313L548 313L548 311L546 313L543 312L543 308L541 307M545 216L545 210L547 208L550 213L558 207L559 208L561 206L568 205L571 201M549 226L547 222L543 220L545 216M555 289L553 291L548 288M554 315L554 315M554 238L556 238M561 285L556 284L557 285L555 289M557 291L555 291L555 289M557 291L558 291M569 172L567 174L563 168L566 165L568 165L568 163L570 163L574 158L574 160L576 160L575 159L577 153L580 152L579 147L583 141L584 136L580 131L578 131L579 132L576 134L568 134L565 130L566 125L562 123L560 125L557 122L560 117L558 115M559 291L559 291M560 291L561 291M561 291L562 290M563 290L564 290M565 290L565 290M614 200L609 199L609 195L601 199L598 196L598 192L596 192L595 195L592 192L593 191L589 189L590 188L588 186L585 187L582 184L574 184L572 181L572 177L568 178M568 178L567 175L570 174L569 172M568 178L565 181L566 182L564 180L559 181L562 184L562 192L564 194L568 192L567 193L571 201M569 172L568 171L569 172M569 172L569 172M569 172L569 172M571 201L572 200L575 203L575 205L577 203L581 211L580 214L582 216L582 220M469 259L469 259M490 317L490 317M509 297L509 297" id="省界"/><path class="leaflet-interactive" stroke="#3388ff" stroke-opacity="0" stroke-width="3" stroke-linecap="round" stroke-linejoin="round" fill="#eee" fill-opacity="0.5" fill-rule="evenodd" d="M535 222L536 221L532 221L531 218L529 220L530 221L525 223L526 224L524 228L526 230L530 230L532 228L531 227L535 225L535 222z" id="北京市"/><path class="leaflet-interactive" stroke="#3388ff" stroke-opacity="0" stroke-width="3" stroke-linecap="round" stroke-linejoin="round" fill="#eee" fill-opacity="0.5" fill-rule="evenodd" d="M537 231L538 230L535 227L537 227L535 225L533 227L534 228L531 230L531 236L536 237L536 235L538 234L537 231zM537 231L537 231z" id="天津市"/><path class="leaflet-interactive" stroke="#3388ff" stroke-opacity="0" stroke-width="3" stroke-linecap="round" stroke-linejoin="round" fill="#eee" fill-opacity="0.5" fill-rule="evenodd" d="M535 221L534 224L537 227L535 227L540 234L542 234L541 233L543 233L549 226L547 222L543 220L545 216L544 217L539 214L540 211L537 206L533 208L531 212L525 212L522 215L519 210L517 212L515 218L517 224L519 224L516 226L515 225L518 228L518 230L519 229L518 232L514 234L515 235L513 239L516 242L516 244L514 250L512 250L515 253L523 255L523 251L527 246L538 239L536 237L531 236L532 229L524 229L524 227L527 224L526 223L530 221L529 220L531 218L532 221L535 221zM534 226L531 227L533 229L534 226zM537 231L537 231zM543 233L543 233z" id="河北省"/><path class="leaflet-interactive" stroke="#3388ff" stroke-opacity="0" stroke-width="3" stroke-linecap="round" stroke-linejoin="round" fill="#eee" fill-opacity="0.5" fill-rule="evenodd" d="M495 265L504 262L504 260L508 261L513 258L513 250L516 245L513 237L519 229L518 230L518 228L515 225L516 226L518 224L517 221L515 223L514 222L513 224L507 224L504 227L504 229L502 229L498 234L499 235L496 240L496 258L494 265z" id="山西省"/><path class="leaflet-interactive" stroke="#3388ff" stroke-opacity="0" stroke-width="3" stroke-linecap="round" stroke-linejoin="round" fill="#eee" fill-opacity="0.5" fill-rule="evenodd" d="M420 205L424 214L422 215L426 222L429 222L430 220L431 221L434 219L436 220L437 224L434 227L441 231L443 235L447 236L448 234L446 233L452 233L458 230L459 231L460 233L455 238L455 242L457 242L459 245L469 242L469 236L474 231L476 233L473 239L478 240L482 244L484 244L487 241L488 237L494 231L497 232L499 229L499 231L501 231L501 229L503 229L506 224L508 225L514 223L516 221L515 216L519 210L522 215L525 212L530 212L532 208L537 207L539 209L538 210L540 212L540 216L545 217L547 209L550 212L550 214L554 209L564 205L568 205L571 202L568 199L570 199L569 194L567 192L564 194L562 192L562 185L561 182L559 182L560 179L562 181L566 181L568 177L567 174L568 175L570 173L568 171L569 172L567 174L563 168L566 165L568 165L568 163L570 163L574 158L574 160L576 160L575 159L577 153L580 152L579 147L583 141L584 136L580 131L578 131L579 132L576 134L568 134L565 130L566 125L562 123L560 125L557 122L560 117L556 115L550 120L550 122L554 122L554 128L550 130L549 135L545 141L546 144L537 150L531 147L527 155L526 161L524 162L527 166L529 164L533 164L535 166L537 163L541 163L548 169L549 173L547 175L543 173L535 175L535 177L532 176L527 183L523 185L520 184L513 190L507 187L503 188L501 192L504 197L502 200L500 200L490 208L477 208L462 214L462 212L459 213L448 210L446 207L430 207L420 205z" id="内蒙古自治区"/><path class="leaflet-interactive" stroke="#3388ff" stroke-opacity="0" stroke-width="3" stroke-linecap="round" stroke-linejoin="round" fill="#eee" fill-opacity="0.5" fill-rule="evenodd" d="M570 228L574 227L578 222L582 220L582 216L580 214L580 210L577 203L575 205L575 203L572 200L570 204L569 203L566 206L563 205L560 208L559 207L554 209L550 213L547 208L545 210L546 215L543 220L547 222L549 226L551 226L554 223L554 221L556 221L555 220L562 221L561 226L558 227L557 230L559 232L556 235L561 234L560 233L561 234L564 230L570 228zM565 232L564 231L565 232zM563 232L563 232zM565 232L565 232zM565 233L565 233zM567 230L567 230zM564 232L564 232zM554 223L554 223zM567 231L567 230zM568 234L568 233zM571 228L571 228z" id="辽宁省"/><path class="leaflet-interactive" stroke="#3388ff" stroke-opacity="0" stroke-width="3" stroke-linecap="round" stroke-linejoin="round" fill="#eee" fill-opacity="0.5" fill-rule="evenodd" d="M604 208L606 204L608 204L610 208L609 205L611 205L614 201L611 200L608 195L600 199L597 192L596 195L594 195L592 192L593 191L591 191L588 186L585 187L578 183L575 184L572 181L573 179L571 177L568 178L565 181L566 182L564 180L560 180L559 182L561 182L563 194L567 192L570 197L570 199L568 199L575 203L575 205L577 203L580 210L580 214L582 216L582 220L584 220L588 213L590 213L590 215L596 216L597 215L595 211L601 211L602 208L604 208z" id="吉林省"/><path class="leaflet-interactive" stroke="#3388ff" stroke-opacity="0" stroke-width="3" stroke-linecap="round" stroke-linejoin="round" fill="#eee" fill-opacity="0.5" fill-rule="evenodd" d="M570 178L571 177L573 179L573 183L578 183L584 187L587 186L590 188L589 189L593 191L592 192L595 195L595 193L598 192L600 199L608 195L609 198L613 200L614 195L612 189L618 185L623 188L624 187L626 181L629 178L631 170L630 169L634 165L632 163L636 159L632 159L620 165L613 166L610 162L611 159L609 155L607 155L603 150L602 151L600 149L597 150L593 148L593 144L591 142L592 141L589 136L589 132L587 130L587 126L584 120L580 116L577 117L572 113L563 113L559 115L560 118L556 122L559 123L559 125L563 123L565 125L567 134L576 134L579 131L582 133L584 137L579 146L580 151L576 155L576 161L575 162L574 159L563 168L567 174L569 172L568 171L570 173L568 175L567 174L567 176L570 178z" id="黑龙江省"/><path class="leaflet-interactive" stroke="#3388ff" stroke-opacity="0" stroke-width="3" stroke-linecap="round" stroke-linejoin="round" fill="#eee" fill-opacity="0.5" fill-rule="evenodd" d="M555 289L556 291L561 291L561 289L558 286L556 286L555 289zM561 285L556 284L558 286L561 286zM560 287L559 286L560 287zM560 287L562 288L560 287zM559 286L559 286zM561 288L561 288zM560 288L561 288z" id="上海市"/><path class="leaflet-interactive" stroke="#3388ff" stroke-opacity="0" stroke-width="3" stroke-linecap="round" stroke-linejoin="round" fill="#eee" fill-opacity="0.5" fill-rule="evenodd" d="M534 265L531 262L529 264L539 272L538 275L539 274L541 278L543 278L543 276L545 278L544 280L543 279L541 281L544 288L545 287L553 291L556 288L556 284L561 285L560 282L558 282L558 280L555 279L555 275L552 268L548 266L545 263L545 261L539 267L538 264L536 266L534 265z" id="江苏省"/><path class="leaflet-interactive" stroke="#3388ff" stroke-opacity="0" stroke-width="3" stroke-linecap="round" stroke-linejoin="round" fill="#eee" fill-opacity="0.5" fill-rule="evenodd" d="M541 307L543 307L543 312L546 313L548 311L548 313L552 313L552 315L554 310L556 310L555 309L559 307L559 301L561 301L561 297L555 289L553 291L548 288L547 292L546 291L546 293L543 294L543 298L539 301L541 307zM562 296L563 295L561 295L562 296zM562 295L562 295zM562 298L562 298zM563 291L564 291zM562 294L562 294zM563 294L563 294zM561 301L561 301zM563 297L564 296L563 297zM563 293L563 293zM560 304L560 304zM563 297L563 297zM560 302L560 302zM557 311L557 311zM561 291L562 292L561 291zM560 306L560 306zM562 298L562 298zM564 296L564 296zM564 292L564 292zM560 306L560 306zM561 295L561 295zM563 296L563 296zM560 296L560 296zM556 312L556 312zM561 301L561 301zM561 298L561 298zM561 295L561 295zM561 294L561 294zM562 296L562 296zM563 298L562 298zM556 310L556 310zM565 295L565 295zM563 294L563 294zM563 297L563 297zM565 291L565 291zM556 309L556 309zM556 309L556 309zM564 296L564 296zM566 291L566 291zM562 296L562 296zM561 296L561 296zM556 309L556 309zM564 296L564 296zM562 296L562 296z" id="浙江省"/><path class="leaflet-interactive" stroke="#3388ff" stroke-opacity="0" stroke-width="3" stroke-linecap="round" stroke-linejoin="round" fill="#eee" fill-opacity="0.5" fill-rule="evenodd" d="M530 269L531 270L528 271L526 269L524 270L525 271L523 275L521 275L521 277L524 280L525 279L527 282L523 286L527 290L526 293L528 297L530 297L530 295L532 299L534 296L540 300L543 297L543 295L546 294L548 289L546 287L543 288L543 286L540 283L542 279L545 278L543 276L543 278L541 278L540 275L538 275L539 272L530 265L528 265L530 269zM543 286L543 286zM531 298L531 298zM524 280L524 280z" id="安徽省"/><path class="leaflet-interactive" stroke="#3388ff" stroke-opacity="0" stroke-width="3" stroke-linecap="round" stroke-linejoin="round" fill="#eee" fill-opacity="0.5" fill-rule="evenodd" d="M544 328L543 327L545 327L545 325L549 325L547 325L549 320L548 318L550 318L549 319L552 314L547 311L545 313L543 311L543 307L541 307L533 311L534 314L530 317L530 321L527 324L526 329L530 331L531 330L532 335L534 337L539 333L539 331L542 331L542 329L544 328zM541 331L540 332L541 331zM547 327L547 327zM547 324L547 324zM550 321L549 320zM540 332L540 332zM549 317L549 317zM539 331L539 331zM549 321L549 321zM548 321L547 321zM550 319L550 318zM548 324L548 324zM548 318L549 318zM550 318L550 318zM552 316L551 316zM551 317L551 317zM548 318L548 318z" id="福建省"/><path class="leaflet-interactive" stroke="#3388ff" stroke-opacity="0" stroke-width="3" stroke-linecap="round" stroke-linejoin="round" fill="#eee" fill-opacity="0.5" fill-rule="evenodd" d="M539 300L534 297L532 299L530 295L530 297L524 297L520 299L521 300L517 300L515 302L517 306L513 312L515 314L515 320L517 320L515 325L520 326L516 330L517 331L521 331L523 329L525 331L526 330L528 322L530 321L529 320L533 312L541 307L538 301L539 300z" id="江西省"/><path class="leaflet-interactive" stroke="#3388ff" stroke-opacity="0" stroke-width="3" stroke-linecap="round" stroke-linejoin="round" fill="#eee" fill-opacity="0.5" fill-rule="evenodd" d="M529 265L529 263L532 262L534 266L538 264L539 267L545 261L546 262L551 255L550 254L553 255L555 251L563 249L565 245L559 245L554 242L551 243L548 247L546 247L544 245L546 242L543 240L541 241L539 239L537 239L535 242L531 242L523 251L523 257L527 255L520 261L525 265L529 265zM554 241L554 242zM554 241L554 241zM555 252L555 252zM554 240L554 240zM555 238L555 238zM551 257L551 257zM553 241L553 241zM554 239L554 239zM558 244L558 244zM558 244L558 244zM558 244L558 244zM524 256L524 256z" id="山东省"/><path class="leaflet-interactive" stroke="#3388ff" stroke-opacity="0" stroke-width="3" stroke-linecap="round" stroke-linejoin="round" fill="#eee" fill-opacity="0.5" fill-rule="evenodd" d="M508 280L514 280L516 284L523 287L524 286L527 282L526 279L522 279L521 276L526 269L528 271L531 270L530 267L528 267L528 265L524 265L522 262L520 262L527 255L523 257L524 254L521 255L515 253L511 260L505 260L505 262L495 266L499 273L498 274L502 279L506 281L508 280zM514 281L514 281z" id="河南省"/><path class="leaflet-interactive" stroke="#3388ff" stroke-opacity="0" stroke-width="3" stroke-linecap="round" stroke-linejoin="round" fill="#eee" fill-opacity="0.5" fill-rule="evenodd" d="M499 275L490 274L492 276L491 277L494 278L490 280L490 284L494 288L494 290L492 290L489 293L486 292L484 294L484 298L485 297L487 299L486 300L488 300L488 302L490 298L496 298L497 295L506 299L510 297L509 298L511 300L513 297L514 302L517 300L521 300L520 299L524 297L528 297L526 293L527 290L524 287L516 284L514 280L504 280L499 275zM488 292L488 292zM499 275L499 275zM508 280L508 280zM509 297L509 297z" id="湖北省"/><path class="leaflet-interactive" stroke="#3388ff" stroke-opacity="0" stroke-width="3" stroke-linecap="round" stroke-linejoin="round" fill="#eee" fill-opacity="0.5" fill-rule="evenodd" d="M504 330L505 327L509 329L511 325L515 325L517 321L515 321L516 318L515 313L513 313L513 311L517 307L513 301L513 297L510 300L509 297L507 299L503 296L502 297L496 295L495 298L493 297L489 299L488 304L490 312L488 312L486 315L490 315L489 320L492 323L493 320L493 322L495 322L498 319L500 323L501 322L498 328L499 329L501 327L502 330L504 329zM490 317L490 317z" id="湖南省"/><path class="leaflet-interactive" stroke="#3388ff" stroke-opacity="0" stroke-width="3" stroke-linecap="round" stroke-linejoin="round" fill="#eee" fill-opacity="0.5" fill-rule="evenodd" d="M513 345L514 342L516 344L525 341L528 342L533 337L533 333L531 331L532 330L526 328L525 331L523 329L521 331L517 331L516 330L520 326L519 325L511 325L509 329L505 327L503 333L504 334L501 337L501 341L491 349L492 358L496 356L494 352L497 350L498 351L510 346L511 347L513 345zM533 338L533 338zM509 348L508 349L509 348zM507 349L508 348L507 349zM517 347L517 346zM495 352L496 351L495 352zM507 349L507 349zM496 352L494 353L496 352zM514 347L514 347zM514 347L514 347zM511 348L511 347zM515 344L514 344zM517 347L517 347zM516 347L516 347zM531 354L532 354zM510 348L510 347zM495 355L495 355zM496 353L496 353zM496 357L496 357zM527 352L527 352zM526 353L527 353zM526 342L526 342zM526 342L526 342z" id="广东省"/><path class="leaflet-interactive" stroke="#3388ff" stroke-opacity="0" stroke-width="3" stroke-linecap="round" stroke-linejoin="round" fill="#eee" fill-opacity="0.5" fill-rule="evenodd" d="M490 322L487 323L487 325L486 324L481 327L478 327L477 324L476 327L475 326L471 328L471 330L467 328L461 330L465 332L465 334L471 334L471 336L468 339L470 341L475 342L473 344L474 347L481 350L491 350L493 347L495 347L495 345L497 345L497 343L501 341L501 337L504 334L504 330L502 330L501 327L499 329L498 328L501 323L499 319L494 322L490 322zM465 328L465 329zM488 353L488 353z" id="广西壮族自治区"/><path class="leaflet-interactive" stroke="#3388ff" stroke-opacity="0" stroke-width="3" stroke-linecap="round" stroke-linejoin="round" fill="#eee" fill-opacity="0.5" fill-rule="evenodd" d="M493 359L489 359L485 363L485 367L487 369L490 370L496 367L496 364L499 361L497 358L494 358zM505 453L505 453zM511 429L512 428zM504 453L504 453zM501 376L501 376zM537 388L537 387zM506 453L506 452zM503 382L503 381zM502 381L502 381zM515 432L519 430L515 431zM515 424L516 425L515 424zM515 425L515 425zM504 381L504 381zM503 380L503 380zM505 424L505 424zM514 433L515 433zM517 425L517 425zM505 377L506 377zM519 416L520 416zM526 419L526 419zM519 418L519 418zM514 431L515 431zM490 433L491 432L490 433zM528 424L529 424zM507 383L508 382L507 383zM507 424L508 424zM518 413L519 413zM506 381L507 381zM530 416L530 415zM506 377L506 377zM501 380L502 380zM524 418L524 418zM519 428L520 428zM518 429L519 428zM522 427L523 428L522 427zM515 429L515 429zM524 421L524 421zM530 423L530 423zM513 424L514 424zM519 412L520 412zM519 410L519 409zM521 413L521 413zM502 380L502 380zM515 424L515 425zM492 430L493 430zM531 409L531 409zM502 379L503 379zM507 380L507 380zM503 382L503 382zM515 418L515 417zM520 428L520 429zM530 419L530 419zM523 417L523 417zM532 415L532 415zM520 382L520 382zM527 422L527 422zM514 422L514 422zM519 432L520 432zM518 414L519 413zM537 413L537 413zM517 416L517 416zM519 409L520 409zM531 415L531 415zM495 429L496 428L495 429zM501 426L501 426zM523 426L523 426zM511 429L511 429zM516 412L516 412zM534 416L534 416zM517 383L517 382zM496 429L496 429zM524 427L524 426zM502 432L502 432zM502 425L503 426L502 425zM495 430L496 430zM506 424L506 424zM530 419L530 419zM504 429L504 429zM518 385L518 385zM521 412L521 412zM516 383L516 383zM527 417L527 417zM534 414L534 414zM520 434L520 434zM509 424L509 424zM502 431L502 431zM505 425L506 424zM507 442L507 442zM519 424L519 424zM520 429L521 429zM510 427L510 427zM513 435L513 435zM531 381L531 381zM535 417L535 417zM510 362L510 362zM518 383L518 382zM515 364L514 364zM508 446L508 446zM502 430L502 430zM506 424L506 424zM509 430L509 430zM507 443L508 443zM507 443L507 443zM523 395L523 395zM513 416L513 416zM515 386L515 386zM509 447L509 446zM507 446L508 446zM506 443L506 443zM505 378L505 378zM505 385L505 384zM508 444L508 444zM507 442L507 442zM511 439L511 439zM528 420L528 420zM521 432L521 432zM502 430L502 430zM515 384L515 384zM521 383L521 383zM531 423L531 423zM508 380L508 380zM500 359L500 359zM526 415L526 415zM534 414L534 414zM508 381L508 381zM526 415L526 415zM507 420L507 420zM519 385L519 385zM534 412L534 412zM537 412L537 412zM516 421L517 421zM520 419L520 420zM507 441L507 441z" id="海南省"/><path class="leaflet-interactive" stroke="#3388ff" stroke-opacity="0" stroke-width="3" stroke-linecap="round" stroke-linejoin="round" fill="#eee" fill-opacity="0.5" fill-rule="evenodd" d="M472 306L474 304L474 306L477 303L478 304L479 301L481 303L482 302L484 304L483 305L485 305L485 307L486 306L486 308L488 308L489 303L488 300L486 300L487 299L485 297L484 298L484 294L486 292L489 293L492 290L493 291L494 288L484 281L482 289L480 291L479 290L479 292L475 296L470 293L468 295L469 296L466 299L470 303L472 303L472 305zM488 292L488 292zM468 295L468 295zM488 292L488 292zM476 296L476 296z" id="重庆市"/><path class="leaflet-interactive" stroke="#3388ff" stroke-opacity="0" stroke-width="3" stroke-linecap="round" stroke-linejoin="round" fill="#eee" fill-opacity="0.5" fill-rule="evenodd" d="M443 314L442 315L444 319L448 321L453 319L452 314L459 305L461 305L460 306L462 310L464 310L465 308L466 311L470 311L472 309L469 308L468 305L472 305L472 303L470 303L466 299L470 293L475 296L479 292L478 291L482 289L484 281L481 282L478 279L472 279L470 277L467 277L465 279L462 278L460 276L460 272L456 270L455 271L453 267L449 269L450 272L447 275L446 272L445 275L442 274L443 277L441 279L437 279L436 276L434 278L431 275L429 275L427 269L424 268L421 271L423 273L421 277L427 282L427 284L430 287L428 287L431 296L431 306L432 307L434 303L437 307L436 308L438 310L440 309L440 311L443 314zM472 295L472 295zM476 295L476 295zM468 295L468 295z" id="四川省"/><path class="leaflet-interactive" stroke="#3388ff" stroke-opacity="0" stroke-width="3" stroke-linecap="round" stroke-linejoin="round" fill="#eee" fill-opacity="0.5" fill-rule="evenodd" d="M489 306L487 308L483 304L483 302L480 303L480 301L478 301L477 304L476 303L473 306L473 304L473 306L470 304L468 306L472 309L470 311L467 310L466 313L458 313L456 315L457 318L462 319L460 324L463 327L462 330L466 328L471 330L471 328L475 326L476 327L477 324L478 327L482 327L482 325L485 326L485 324L488 325L487 324L489 324L490 315L486 315L490 311L489 306zM490 316L490 316zM490 317L490 317z" id="贵州省"/><path class="leaflet-interactive" stroke="#3388ff" stroke-opacity="0" stroke-width="3" stroke-linecap="round" stroke-linejoin="round" fill="#eee" fill-opacity="0.5" fill-rule="evenodd" d="M466 311L465 308L463 310L461 309L461 305L457 306L458 307L456 307L456 310L452 314L453 319L447 321L444 318L441 311L438 310L434 304L432 306L433 307L431 307L431 301L430 304L428 304L429 307L428 308L426 306L425 309L426 312L427 311L429 313L429 323L427 323L423 328L422 334L430 334L428 334L428 336L430 340L431 339L430 340L433 341L431 345L436 346L438 350L442 348L442 350L446 352L446 344L450 342L453 344L455 342L463 342L464 339L468 339L471 336L471 334L465 334L466 333L461 330L463 328L461 324L463 319L461 317L457 317L459 313L466 313L466 311z" id="云南省"/><path class="leaflet-interactive" stroke="#3388ff" stroke-opacity="0" stroke-width="3" stroke-linecap="round" stroke-linejoin="round" fill="#eee" fill-opacity="0.5" fill-rule="evenodd" d="M377 255L375 253L365 252L357 254L356 257L350 257L345 260L341 260L338 257L336 257L332 261L328 259L324 260L320 266L316 266L317 267L314 269L318 277L317 280L315 280L315 278L313 280L313 282L316 285L316 289L322 290L322 292L329 296L330 293L332 293L342 301L345 300L347 304L352 305L351 306L357 310L357 308L359 310L359 308L363 310L373 309L372 312L374 314L375 310L378 307L388 310L388 312L390 312L392 316L399 316L411 307L415 307L419 311L422 306L426 308L426 306L428 308L428 304L430 304L431 301L431 296L426 280L422 279L420 281L421 282L417 284L418 285L414 283L415 285L412 285L410 281L409 282L409 280L405 278L401 280L380 273L378 271L379 270L377 270L377 255z" id="西藏自治区"/><path class="leaflet-interactive" stroke="#3388ff" stroke-opacity="0" stroke-width="3" stroke-linecap="round" stroke-linejoin="round" fill="#eee" fill-opacity="0.5" fill-rule="evenodd" d="M495 265L495 249L497 245L496 240L500 232L499 229L496 232L494 230L494 232L491 233L491 235L487 238L486 243L483 244L479 242L477 244L477 248L485 252L485 260L480 260L479 263L474 262L472 266L474 266L472 270L473 271L469 273L469 277L467 276L468 278L476 278L481 282L484 281L489 285L491 283L490 280L494 278L491 277L492 276L490 274L497 275L499 273L496 270L497 269L495 265zM499 273L499 273zM470 278L470 278z" id="陕西省"/><path class="leaflet-interactive" stroke="#3388ff" stroke-opacity="0" stroke-width="3" stroke-linecap="round" stroke-linejoin="round" fill="#eee" fill-opacity="0.5" fill-rule="evenodd" d="M473 257L472 260L469 259L469 257L466 256L466 249L463 246L462 247L462 245L455 242L455 238L460 234L458 230L453 233L446 233L447 236L441 234L441 232L438 229L433 227L437 224L437 220L434 219L429 222L426 222L426 219L422 216L424 214L420 205L415 206L413 208L414 210L412 213L408 213L400 221L396 222L392 232L396 232L402 236L403 235L405 238L411 238L414 240L417 239L417 237L419 237L418 234L420 232L425 235L429 233L434 238L436 239L436 237L443 242L448 243L447 244L450 247L453 256L451 256L452 259L451 258L447 264L449 267L448 268L444 268L441 266L440 267L444 272L445 271L445 273L447 273L447 275L450 272L448 269L452 267L454 271L455 270L460 272L460 276L462 278L467 278L467 276L468 277L470 275L468 273L473 272L473 262L480 263L481 260L485 260L485 252L474 247L472 251L475 254L475 256L473 257zM470 259L470 259zM452 253L452 253zM470 259L470 259zM473 257L473 257z" id="甘肃省"/><path class="leaflet-interactive" stroke="#3388ff" stroke-opacity="0" stroke-width="3" stroke-linecap="round" stroke-linejoin="round" fill="#eee" fill-opacity="0.5" fill-rule="evenodd" d="M452 253L450 248L451 247L447 243L442 242L440 239L436 237L437 239L435 238L430 233L427 233L425 235L419 232L419 236L415 240L412 238L406 238L404 235L402 236L397 234L397 232L380 237L380 239L382 239L382 243L386 247L383 250L385 252L384 255L379 253L379 255L376 256L378 256L376 260L376 263L378 263L377 270L379 270L378 271L383 275L387 275L401 280L405 278L409 280L408 281L410 281L412 285L414 285L414 283L418 285L417 284L421 282L420 281L422 279L421 276L423 274L421 270L424 268L428 271L429 275L431 275L434 278L436 276L437 279L441 279L443 277L442 274L444 275L446 274L446 272L445 273L445 271L444 272L440 268L449 267L447 263L449 259L452 258L452 253z" id="青海省"/><path class="leaflet-interactive" stroke="#3388ff" stroke-opacity="0" stroke-width="3" stroke-linecap="round" stroke-linejoin="round" fill="#eee" fill-opacity="0.5" fill-rule="evenodd" d="M477 247L479 241L473 239L476 234L475 231L473 231L470 234L468 243L460 245L462 245L462 247L463 246L466 249L466 255L472 261L472 257L475 256L475 254L472 251L474 249L473 248L477 247zM470 259L470 259zM470 259L470 259z" id="宁夏回族自治区"/><path class="leaflet-interactive" stroke="#3388ff" stroke-opacity="0" stroke-width="3" stroke-linecap="round" stroke-linejoin="round" fill="#eee" fill-opacity="0.5" fill-rule="evenodd" d="M415 206L409 193L408 194L396 187L386 187L383 184L385 179L385 173L380 165L374 163L368 158L368 156L366 156L367 153L361 153L361 157L359 159L355 159L354 161L354 171L345 172L340 169L335 181L337 185L331 185L322 188L324 190L324 194L327 201L324 204L326 204L323 206L324 209L320 213L319 212L309 219L306 218L302 222L302 224L298 224L297 222L293 223L290 226L289 225L285 232L288 237L291 236L293 238L292 239L294 245L291 246L291 248L295 248L299 251L300 256L307 259L311 259L312 264L317 267L316 266L320 266L325 259L331 261L337 257L339 259L346 260L350 257L356 257L357 254L365 252L384 255L385 252L383 250L386 247L382 243L382 239L380 239L380 237L392 234L396 222L401 220L407 213L409 213L409 215L414 211L414 206z" id="新疆维吾尔自治区"/><path class="leaflet-interactive" stroke="#3388ff" stroke-opacity="0" stroke-width="3" stroke-linecap="round" stroke-linejoin="round" fill="#eee" fill-opacity="0.5" fill-rule="evenodd" d="M552 344L553 347L555 347L555 343L558 340L561 328L559 326L553 331L550 336L551 343zM576 322L576 322zM569 323L569 323zM548 337L547 337zM571 322L571 322zM547 337L547 337zM547 338L547 338zM547 336L547 336zM561 324L562 324zM558 342L558 342zM558 346L559 346zM562 325L562 325zM546 339L547 339zM552 345L552 344z" id="台湾省"/><path class="leaflet-interactive" stroke="#3388ff" stroke-opacity="0" stroke-width="3" stroke-linecap="round" stroke-linejoin="round" fill="#eee" fill-opacity="0.5" fill-rule="evenodd" d="M516 344L515 345L518 344L516 344zM516 345L516 345zM517 344L517 344zM517 344L517 344zM517 344L517 344zM517 345L517 345zM517 344L517 344zM518 345L518 345zM517 345L517 345z" id="香港特别行政区"/><path class="leaflet-interactive" stroke="#3388ff" stroke-opacity="0" stroke-width="3" stroke-linecap="round" stroke-linejoin="round" fill="#eee" fill-opacity="0.5" fill-rule="evenodd" d="M513 346L513 346zM513 345L513 345z" id="澳门特别行政区"/><path class="leaflet-interactive" stroke="#3388ff" stroke-opacity="0" stroke-width="3" stroke-linecap="round" stroke-linejoin="round" fill="#eee" fill-opacity="0.5" fill-rule="evenodd" d="M564 338L566 331L564 338zM556 354L561 349L560 348L556 354zM547 371L550 365L547 371zM544 388L544 383L544 388zM542 411L541 413L544 406L543 408zM524 434L528 429L524 434zM506 455L503 456L509 454L507 455zM483 440L483 435L483 440zM494 410L493 411L495 405L494 409zM492 387L489 382L491 386z" id="100000_JD"/></g></svg>